<svg xmlns="http://www.w3.org/2000/svg" viewBox="0 0 140 140" fill="none">
  <defs>
    <filter id="soft" x="-20%" y="-20%" width="140%" height="140%">
      <feDropShadow dx="0" dy="7" stdDeviation="7" flood-color="#000" flood-opacity=".18"/>
    </filter>
  </defs>

  <!-- Head -->
  <g filter="url(#soft)">
    <path
      d="M30 78c0-25 18-46 40-46 23 0 40 21 40 46 0 17-11 30-26 34-6 2-22 2-28 0-15-4-26-17-26-34Z"
      fill="#ffffff"
    />
    <!-- Ears -->
    <path d="M44 46c-8 1-16 9-16 18 0 8 6 12 14 10" fill="#f4f6ff" stroke="#0e1624" stroke-opacity=".12"/>
    <path d="M96 46c8 1 16 9 16 18 0 8-6 12-14 10" fill="#f4f6ff" stroke="#0e1624" stroke-opacity=".12"/>
    <!-- Horn -->
    <path d="M67 22c5 6 10 18 8 30-4-8-10-14-16-18 2-5 5-9 8-12Z" fill="#7b6cff"/>
    <!-- Eyes -->
    <circle cx="56" cy="74" r="6.5" fill="#0e1624"/>
    <circle cx="84" cy="74" r="6.5" fill="#0e1624"/>
    <circle cx="54" cy="72" r="2" fill="#fff"/>
    <circle cx="82" cy="72" r="2" fill="#fff"/>
    <!-- Smile -->
    <path d="M60 92c4 5 8 7 10 7 2 0 6-2 10-7" stroke="#0e1624" stroke-width="4" stroke-linecap="round"/>
    <!-- Magic sparkle -->
    <path d="M108 60l4 6 6 4-6 4-4 6-4-6-6-4 6-4 4-6Z" fill="#ff7a6b" opacity=".9"/>
  </g>
</svg>


